<svg id="mnemonic" xmlns="http://www.w3.org/2000/svg" xmlns:xlink="http://www.w3.org/1999/xlink" viewBox="0 0 240 234"><defs><radialGradient id="New_Gradient_Swatch_21" cx="97.83" cy="81.29" r="143.43" gradientUnits="userSpaceOnUse"><stop offset="0" stop-color="#320008" stop-opacity="0.85"/><stop offset="0.77" stop-color="#320008"/></radialGradient></defs><title>id</title><rect x="10.12" y="10" width="220" height="214" style="fill:url(#New_Gradient_Swatch_21)"/><path d="M0,0V234H240V0ZM10,10H230V224H10Z" transform="translate(0)" style="fill:#ee3d8f;fill-rule:evenodd"/><path d="M87.75,162.18c0,1-.16,1.32-1.32,1.32H71.07c-1,0-1.32-.49-1.32-1.32V54.82c0-1,.5-1.32,1.32-1.32H86.6c.82,0,1.15.33,1.15,1.16Zm17.69-38.73c0-23.92,15.79-42.57,41-42.57,2.15,0,3.3,0,5.28.17V54.49a1,1,0,0,1,1-1H169c.82,0,1,.33,1,.83v93.54a76.42,76.42,0,0,0,.49,10.07c0,.66-.2.82-.86,1.15A60.62,60.62,0,0,1,143.39,165C121.28,165,105.44,151.34,105.44,123.45Zm46.31-26.23a14.8,14.8,0,0,0-5.94-1c-12.87,0-21.89,9.9-21.89,26.4,0,18.81,9.19,26.4,20.73,26.4a19.32,19.32,0,0,0,7.1-1.16Z" transform="translate(0)" style="fill:#ee3d8f;fill-rule:evenodd"/></svg>